<svg width="27" height="30" viewBox="0 0 27 30" fill="none" xmlns="http://www.w3.org/2000/svg">
<g clip-path="url(#clip0_1_287)">
<path d="M1.51446 4.35513C0.96311 3.79498 0 4.17956 0 4.95985V22.2488C0 22.3398 0.014523 22.4303 0.0430373 22.5169L0.236809 23.1053C0.285715 23.2538 0.374342 23.3866 0.493364 23.4896L3.44825 26.0486C4.01786 26.5418 4.91184 26.1433 4.91184 25.3961V16.8967C4.91184 16.1264 5.85396 15.7372 6.41146 16.2772L12.0689 21.7567C12.4243 22.1009 12.9983 22.0867 13.3357 21.7254L17.0888 17.7056C17.2385 17.5453 17.3216 17.3353 17.3216 17.1175V12.4696C17.3216 11.6828 16.3448 11.3014 15.7977 11.8746L13.0421 14.7618C12.6977 15.1226 12.1171 15.1271 11.7671 14.7714L1.51446 4.35513Z" fill="black"/>
<path d="M18.5544 8.94427C18.3998 9.10551 18.3137 9.3189 18.3137 9.54072V14.1969C18.3137 14.9967 19.3179 15.3715 19.8557 14.7724L20.2848 14.2943C20.8226 13.6951 21.8268 14.0699 21.8268 14.8697V18.9454C21.8268 19.1557 21.7494 19.3589 21.6089 19.5172L14.3549 27.691C13.8564 28.2527 14.2613 29.1314 15.0186 29.1314H17.922C18.1713 29.1314 18.4091 29.0273 18.5762 28.845L26.7716 19.9027C26.9179 19.7431 26.9989 19.5356 26.9989 19.3205V2.31974C26.9989 1.53385 26.024 1.15195 25.4764 1.72328L18.5544 8.94427Z" fill="black"/>
</g>
<defs>
<clipPath id="clip0_1_287">
<rect width="27" height="29" fill="white" transform="translate(0 0.13501)"/>
</clipPath>
</defs>
</svg>
