<svg width="20" height="20" viewBox="0 0 20 20" fill="none" xmlns="http://www.w3.org/2000/svg">
<path d="M7.99903 0.0881348C3.58103 0.0881348 -0.000976562 3.67014 -0.000976562 8.08814C-0.000976562 12.5061 3.58103 16.0881 7.99903 16.0881C9.83603 16.0881 11.559 15.4391 12.91 14.3981L17.28 18.8071C17.671 19.1971 18.327 19.1971 18.718 18.8071C19.108 18.4161 19.108 17.7602 18.718 17.3692L14.312 12.9931C15.353 11.6431 15.999 9.92514 15.999 8.08814C15.999 3.67014 12.417 0.0881348 7.99903 0.0881348ZM7.99903 2.08814C11.313 2.08814 13.999 4.77414 13.999 8.08814C13.999 11.4021 11.313 14.0881 7.99903 14.0881C4.68503 14.0881 1.99902 11.4021 1.99902 8.08814C1.99902 4.77414 4.68503 2.08814 7.99903 2.08814Z" fill="#2A343D"/>
</svg>
