<svg width="18" height="18" viewBox="0 0 18 18" fill="none" xmlns="http://www.w3.org/2000/svg">
<path d="M8.99886 0.762695C4.39636 0.762695 0.665527 4.49369 0.665527 9.09603C0.665527 10.291 0.940532 11.4424 1.42053 12.5075C0.737199 16.0367 0.691366 16.4398 0.691366 16.4398C0.579699 17.0178 1.07636 17.5128 1.65553 17.4034C1.65553 17.4034 2.02303 17.3226 5.5872 16.6481C6.6522 17.128 7.80386 17.4294 8.99886 17.4294C13.6014 17.4294 17.3322 13.6984 17.3322 9.09603C17.3322 4.49369 13.6014 0.762695 8.99886 0.762695ZM6.65552 4.92936C7.43635 4.92936 8.47803 5.97103 8.47803 6.75228C8.47803 7.01269 7.93303 7.93886 7.95719 8.05436C8.13053 8.88169 9.21053 9.98786 10.0405 10.1377C10.1397 10.1556 11.0822 9.61686 11.3422 9.61686C12.1239 9.61686 13.1655 10.6585 13.1655 11.4398C13.1655 12.221 12.1239 13.2627 11.3422 13.2627C10.3355 13.2627 8.47803 12.221 7.43636 11.1794C7.32386 11.0673 7.02803 10.7706 6.91553 10.6585C5.87386 9.61686 4.83219 7.75911 4.83219 6.75228C4.83219 5.97103 5.87385 4.92936 6.65552 4.92936Z" fill="white"/>
</svg>
